{
  "accessors": [
    {
      "bufferView": 2,
      "componentType": 5126,
      "count": 520,
      "max": [
        0.7253355979919434,
        -1.1181639432907104,
        2.9210026264190674
      ],
      "min": [
        -0.7253355979919434,
        -1.1489474773406982,
        2.3559553623199463
      ],
      "type": "VEC3"
    },
    {
      "bufferView": 2,
      "byteOffset": 6240,
      "componentType": 5126,
      "count": 520,
      "max": [
        1.0,
        0.9999933838844299,
        1.0
      ],
      "min": [
        -1.0,
        -0.9999934434890747,
        -1.0
      ],
      "type": "VEC3"
    },
    {
      "bufferView": 3,
      "componentType": 5126,
      "count": 520,
      "max": [
        1.0,
        0.003644233336672187,
        1.0,
        1.0
      ],
      "min": [
        -1.0,
        -0.0036474482621997595,
        -1.0,
        -1.0
      ],
      "type": "VEC4"
    },
    {
      "bufferView": 1,
      "componentType": 5126,
      "count": 520,
      "max": [
        0.7654810547828674,
        0.9958508014678955
      ],
      "min": [
        0.003667544573545456,
        0.003932415507733822
      ],
      "type": "VEC2"
    },
    {
      "bufferView": 1,
      "byteOffset": 4160,
      "componentType": 5126,
      "count": 520,
      "max": [
        0.7654810547828674,
        0.9958508014678955
      ],
      "min": [
        0.003667544573545456,
        0.003932415507733822
      ],
      "type": "VEC2"
    },
    {
      "bufferView": 0,
      "componentType": 5125,
      "count": 1536,
      "type": "SCALAR"
    },
    {
      "bufferView": 2,
      "byteOffset": 12480,
      "componentType": 5126,
      "count": 376,
      "max": [
        0.9703558087348938,
        0.46033257246017456,
        2.832671880722046
      ],
      "min": [
        -0.9703558087348938,
        -1.1335277557373047,
        2.636007070541382
      ],
      "type": "VEC3"
    },
    {
      "bufferView": 2,
      "byteOffset": 16992,
      "componentType": 5126,
      "count": 376,
      "max": [
        0.9997810125350952,
        0.9999995827674866,
        1.0
      ],
      "min": [
        -0.9997810125350952,
        -0.9999976754188538,
        -1.0
      ],
      "type": "VEC3"
    },
    {
      "bufferView": 3,
      "byteOffset": 8320,
      "componentType": 5126,
      "count": 376,
      "max": [
        0.9999995827674866,
        0.9979618191719055,
        0.5701907277107239,
        1.0
      ],
      "min": [
        -0.9999995827674866,
        -0.9980452656745911,
        -0.9171350002288818,
        -1.0
      ],
      "type": "VEC4"
    },
    {
      "bufferView": 1,
      "byteOffset": 8320,
      "componentType": 5126,
      "count": 376,
      "max": [
        0.9960307478904724,
        0.9955320954322815
      ],
      "min": [
        0.8141086101531982,
        0.9663415551185608
      ],
      "type": "VEC2"
    },
    {
      "bufferView": 1,
      "byteOffset": 11328,
      "componentType": 5126,
      "count": 376,
      "max": [
        0.9960307478904724,
        0.9955320954322815
      ],
      "min": [
        0.8141086101531982,
        0.9663415551185608
      ],
      "type": "VEC2"
    },
    {
      "bufferView": 0,
      "byteOffset": 6144,
      "componentType": 5125,
      "count": 1068,
      "type": "SCALAR"
    },
    {
      "bufferView": 2,
      "byteOffset": 21504,
      "componentType": 5126,
      "count": 47,
      "max": [
        0.4928748607635498,
        -0.9400607347488403,
        2.2001070976257324
      ],
      "min": [
        -0.4928552210330963,
        -1.2631850242614746,
        1.9440873861312866
      ],
      "type": "VEC3"
    },
    {
      "bufferView": 2,
      "byteOffset": 22068,
      "componentType": 5126,
      "count": 47,
      "max": [
        0.9957482814788818,
        0.7104036808013916,
        0.9776967167854309
      ],
      "min": [
        -0.995492160320282,
        -0.9832443594932556,
        -0.9989247918128967
      ],
      "type": "VEC3"
    },
    {
      "bufferView": 3,
      "byteOffset": 14336,
      "componentType": 5126,
      "count": 47,
      "max": [
        0.9290198683738708,
        0.9404603838920593,
        0.9991060495376587,
        1.0
      ],
      "min": [
        -0.9282506704330444,
        -0.9965638518333435,
        -0.4534910321235657,
        1.0
      ],
      "type": "VEC4"
    },
    {
      "bufferView": 1,
      "byteOffset": 14336,
      "componentType": 5126,
      "count": 47,
      "max": [
        0.8553225994110107,
        0.8281432390213013
      ],
      "min": [
        0.8057177662849426,
        0.5855158567428589
      ],
      "type": "VEC2"
    },
    {
      "bufferView": 1,
      "byteOffset": 14712,
      "componentType": 5126,
      "count": 47,
      "max": [
        0.8553225994110107,
        0.8281432390213013
      ],
      "min": [
        0.8057177662849426,
        0.5855158567428589
      ],
      "type": "VEC2"
    },
    {
      "bufferView": 0,
      "byteOffset": 10416,
      "componentType": 5125,
      "count": 216,
      "type": "SCALAR"
    },
    {
      "bufferView": 2,
      "byteOffset": 22632,
      "componentType": 5126,
      "count": 84,
      "max": [
        0.7412257194519043,
        -0.7471665143966675,
        3.0073468685150146
      ],
      "min": [
        -0.7412257194519043,
        -1.1407638788223267,
        2.851773738861084
      ],
      "type": "VEC3"
    },
    {
      "bufferView": 2,
      "byteOffset": 23640,
      "componentType": 5126,
      "count": 84,
      "max": [
        0.9561718106269836,
        0.44185739755630493,
        0.9982932209968567
      ],
      "min": [
        -0.9561718106269836,
        -0.8755362629890442,
        -0.9960572719573975
      ],
      "type": "VEC3"
    },
    {
      "bufferView": 3,
      "byteOffset": 15088,
      "componentType": 5126,
      "count": 84,
      "max": [
        0.9416727423667908,
        0.965499758720398,
        0.24878598749637604,
        1.0
      ],
      "min": [
        -0.9416874051094055,
        -0.9000369906425476,
        -0.9841622114181519,
        1.0
      ],
      "type": "VEC4"
    },
    {
      "bufferView": 1,
      "byteOffset": 15088,
      "componentType": 5126,
      "count": 84,
      "max": [
        0.8388908505439758,
        0.9553409218788147
      ],
      "min": [
        0.7661761045455933,
        0.8272343277931213
      ],
      "type": "VEC2"
    },
    {
      "bufferView": 1,
      "byteOffset": 15760,
      "componentType": 5126,
      "count": 84,
      "max": [
        0.8388908505439758,
        0.9553409218788147
      ],
      "min": [
        0.7661761045455933,
        0.8272343277931213
      ],
      "type": "VEC2"
    },
    {
      "bufferView": 0,
      "byteOffset": 11280,
      "componentType": 5125,
      "count": 384,
      "type": "SCALAR"
    },
    {
      "bufferView": 2,
      "byteOffset": 24648,
      "componentType": 5126,
      "count": 1729,
      "max": [
        2.5300474166870117,
        1.3960061073303223,
        4.119105339050293
      ],
      "min": [
        -2.5300474166870117,
        -1.518716812133789,
        -0.08656807988882065
      ],
      "type": "VEC3"
    },
    {
      "bufferView": 2,
      "byteOffset": 45396,
      "componentType": 5126,
      "count": 1729,
      "max": [
        0.9999458193778992,
        0.9996361136436462,
        0.9994144439697266
      ],
      "min": [
        -0.9999457001686096,
        -0.9995381236076355,
        -1.0
      ],
      "type": "VEC3"
    },
    {
      "bufferView": 3,
      "byteOffset": 16432,
      "componentType": 5126,
      "count": 1729,
      "max": [
        1.0,
        0.999319851398468,
        0.9984352588653564,
        1.0
      ],
      "min": [
        -0.999287486076355,
        -0.9999074339866638,
        -0.9996119141578674,
        1.0
      ],
      "type": "VEC4"
    },
    {
      "bufferView": 1,
      "byteOffset": 16432,
      "componentType": 5126,
      "count": 1729,
      "max": [
        0.9959220886230469,
        0.9957744479179382
      ],
      "min": [
        0.003230839967727661,
        0.00423857569694519
      ],
      "type": "VEC2"
    },
    {
      "bufferView": 1,
      "byteOffset": 30264,
      "componentType": 5126,
      "count": 1729,
      "max": [
        0.9959220886230469,
        0.9957744479179382
      ],
      "min": [
        0.003230839967727661,
        0.00423857569694519
      ],
      "type": "VEC2"
    },
    {
      "bufferView": 0,
      "byteOffset": 12816,
      "componentType": 5125,
      "count": 8670,
      "type": "SCALAR"
    },
    {
      "bufferView": 2,
      "byteOffset": 66144,
      "componentType": 5126,
      "count": 88,
      "max": [
        0.17702704668045044,
        -1.1166375875473022,
        2.7306551933288574
      ],
      "min": [
        -0.17702704668045044,
        -1.236724853515625,
        2.642439365386963
      ],
      "type": "VEC3"
    },
    {
      "bufferView": 2,
      "byteOffset": 67200,
      "componentType": 5126,
      "count": 88,
      "max": [
        0.6982071995735168,
        0.9143059253692627,
        0.9277865886688232
      ],
      "min": [
        -0.6982078552246094,
        -0.9134960174560547,
        -0.9666447043418884
      ],
      "type": "VEC3"
    },
    {
      "bufferView": 3,
      "byteOffset": 44096,
      "componentType": 5126,
      "count": 88,
      "max": [
        1.0,
        0.6750556230545044,
        0.38365593552589417,
        1.0
      ],
      "min": [
        -1.0,
        -0.6750562787055969,
        -0.3836628496646881,
        1.0
      ],
      "type": "VEC4"
    },
    {
      "bufferView": 1,
      "byteOffset": 44096,
      "componentType": 5126,
      "count": 88,
      "max": [
        0.9947872161865234,
        0.9584720134735107
      ],
      "min": [
        0.9234095811843872,
        0.9179800152778625
      ],
      "type": "VEC2"
    },
    {
      "bufferView": 1,
      "byteOffset": 44800,
      "componentType": 5126,
      "count": 88,
      "max": [
        0.9947872161865234,
        0.9584720134735107
      ],
      "min": [
        0.9234095811843872,
        0.9179800152778625
      ],
      "type": "VEC2"
    },
    {
      "bufferView": 0,
      "byteOffset": 47496,
      "componentType": 5125,
      "count": 240,
      "type": "SCALAR"
    },
    {
      "bufferView": 2,
      "byteOffset": 68256,
      "componentType": 5126,
      "count": 964,
      "max": [
        0.9999997019767761,
        0.9999991059303284,
        1.0316472053527832
      ],
      "min": [
        -6.075052261352539,
        -0.9999994039535522,
        -1.0000001192092896
      ],
      "type": "VEC3"
    },
    {
      "bufferView": 2,
      "byteOffset": 79824,
      "componentType": 5126,
      "count": 964,
      "max": [
        1.0,
        1.0,
        1.0
      ],
      "min": [
        -1.0,
        -1.0,
        -1.0
      ],
      "type": "VEC3"
    },
    {
      "bufferView": 1,
      "byteOffset": 45504,
      "componentType": 5126,
      "count": 964,
      "max": [
        0.9450303912162781,
        0.9450311660766602
      ],
      "min": [
        0.05496948957443237,
        0.05496951937675476
      ],
      "type": "VEC2"
    },
    {
      "bufferView": 0,
      "byteOffset": 48456,
      "componentType": 5125,
      "count": 5760,
      "type": "SCALAR"
    },
    {
      "bufferView": 2,
      "byteOffset": 91392,
      "componentType": 5126,
      "count": 128,
      "max": [
        0.7038164138793945,
        -1.1288471221923828,
        2.8994834423065186
      ],
      "min": [
        -0.7038164138793945,
        -1.1382642984390259,
        2.377474546432495
      ],
      "type": "VEC3"
    },
    {
      "bufferView": 2,
      "byteOffset": 92928,
      "componentType": 5126,
      "count": 128,
      "max": [
        0.0,
        1.0,
        1.0511376302702047e-07
      ],
      "min": [
        0.0,
        -1.0,
        -8.759479896980338e-08
      ],
      "type": "VEC3"
    },
    {
      "bufferView": 1,
      "byteOffset": 53216,
      "componentType": 5126,
      "count": 128,
      "max": [
        0.992247998714447,
        0.49224817752838135
      ],
      "min": [
        0.007751938421279192,
        0.007751938421279192
      ],
      "type": "VEC2"
    },
    {
      "bufferView": 0,
      "byteOffset": 71496,
      "componentType": 5125,
      "count": 360,
      "type": "SCALAR"
    }
  ],
  "asset": {
    "extras": {
      "author": "Stan (https://sketchfab.com/Stas_SayHallo)",
      "license": "CC-BY-NC-4.0 (http://creativecommons.org/licenses/by-nc/4.0/)",
      "source": "https://sketchfab.com/3d-models/gandhi-2d802195370c46f784827142022b61ce",
      "title": "Gandhi"
    },
    "generator": "Sketchfab-15.30.0",
    "version": "2.0"
  },
  "bufferViews": [
    {
      "buffer": 0,
      "byteLength": 72936,
      "name": "floatBufferViews",
      "target": 34963
    },
    {
      "buffer": 0,
      "byteLength": 54240,
      "byteOffset": 72936,
      "byteStride": 8,
      "name": "floatBufferViews",
      "target": 34962
    },
    {
      "buffer": 0,
      "byteLength": 94464,
      "byteOffset": 127176,
      "byteStride": 12,
      "name": "floatBufferViews",
      "target": 34962
    },
    {
      "buffer": 0,
      "byteLength": 45504,
      "byteOffset": 221640,
      "byteStride": 16,
      "name": "floatBufferViews",
      "target": 34962
    }
  ],
  "buffers": [
    {
      "byteLength": 267144,
      "uri": "tf.bin"
    }
  ],
  "extensionsUsed": [
    "KHR_materials_transmission"
  ],
  "images": [
    {
      "uri": "textures/Gandi_baseColor.jpeg"
    },
    {
      "uri": "textures/Gandi_metallicRoughness.png"
    },
    {
      "uri": "textures/Gandi_normal.png"
    },
    {
      "uri": "textures/material_baseColor.jpeg"
    }
  ],
  "materials": [
    {
      "doubleSided": true,
      "name": "Gandi",
      "normalTexture": {
        "index": 2
      },
      "occlusionTexture": {
        "index": 1
      },
      "pbrMetallicRoughness": {
        "baseColorTexture": {
          "index": 0
        },
        "metallicRoughnessTexture": {
          "index": 1
        }
      }
    },
    {
      "doubleSided": true,
      "name": "material",
      "pbrMetallicRoughness": {
        "baseColorTexture": {
          "index": 3
        },
        "metallicFactor": 0.0,
        "roughnessFactor": 0.1
      }
    },
    {
      "alphaMode": "BLEND",
      "doubleSided": true,
      "extensions": {
        "KHR_materials_transmission": {
          "transmissionFactor": 1.0
        }
      },
      "name": "glass",
      "pbrMetallicRoughness": {
        "baseColorFactor": [
          0.9104632182487844,
          0.9236253739920175,
          0.9307064269445119,
          0.25
        ],
        "metallicFactor": 0.0,
        "roughnessFactor": 0.0
      }
    }
  ],
  "meshes": [
    {
      "name": "glasses_02_low_Gandi_0",
      "primitives": [
        {
          "attributes": {
            "NORMAL": 1,
            "POSITION": 0,
            "TANGENT": 2,
            "TEXCOORD_0": 3,
            "TEXCOORD_1": 4
          },
          "indices": 5,
          "material": 0,
          "mode": 4
        }
      ]
    },
    {
      "name": "glasses_01_low_01_Gandi_0",
      "primitives": [
        {
          "attributes": {
            "NORMAL": 7,
            "POSITION": 6,
            "TANGENT": 8,
            "TEXCOORD_0": 9,
            "TEXCOORD_1": 10
          },
          "indices": 11,
          "material": 0,
          "mode": 4
        }
      ]
    },
    {
      "name": "mustache_low_Gandi_0",
      "primitives": [
        {
          "attributes": {
            "NORMAL": 13,
            "POSITION": 12,
            "TANGENT": 14,
            "TEXCOORD_0": 15,
            "TEXCOORD_1": 16
          },
          "indices": 17,
          "material": 0,
          "mode": 4
        }
      ]
    },
    {
      "name": "eyebrows_low_Gandi_0",
      "primitives": [
        {
          "attributes": {
            "NORMAL": 19,
            "POSITION": 18,
            "TANGENT": 20,
            "TEXCOORD_0": 21,
            "TEXCOORD_1": 22
          },
          "indices": 23,
          "material": 0,
          "mode": 4
        }
      ]
    },
    {
      "name": "body_low_Gandi_0",
      "primitives": [
        {
          "attributes": {
            "NORMAL": 25,
            "POSITION": 24,
            "TANGENT": 26,
            "TEXCOORD_0": 27,
            "TEXCOORD_1": 28
          },
          "indices": 29,
          "material": 0,
          "mode": 4
        }
      ]
    },
    {
      "name": "glasses_01_low_02_Gandi_0",
      "primitives": [
        {
          "attributes": {
            "NORMAL": 31,
            "POSITION": 30,
            "TANGENT": 32,
            "TEXCOORD_0": 33,
            "TEXCOORD_1": 34
          },
          "indices": 35,
          "material": 0,
          "mode": 4
        }
      ]
    },
    {
      "name": "eyes_eye_0",
      "primitives": [
        {
          "attributes": {
            "NORMAL": 37,
            "POSITION": 36,
            "TEXCOORD_0": 38
          },
          "indices": 39,
          "material": 1,
          "mode": 4
        }
      ]
    },
    {
      "name": "glasses_03_low_glass_0",
      "primitives": [
        {
          "attributes": {
            "NORMAL": 41,
            "POSITION": 40,
            "TEXCOORD_0": 42
          },
          "indices": 43,
          "material": 2,
          "mode": 4
        }
      ]
    }
  ],
  "nodes": [
    {
      "children": [
        1
      ],
      "matrix": [
        -1.0,
        -6.290011496532519e-32,
        2.832769343193999e-16,
        0.0,
        2.832769343193999e-16,
        -2.220446049250313e-16,
        1.0,
        0.0,
        0.0,
        1.0,
        2.220446049250313e-16,
        0.0,
        0.0,
        0.0,
        0.0,
        1.0
      ],
      "name": "Sketchfab_model"
    },
    {
      "children": [
        2
      ],
      "matrix": [
        0.009999999776482582,
        0.0,
        0.0,
        0.0,
        0.0,
        0.0,
        0.009999999776482582,
        0.0,
        0.0,
        -0.009999999776482582,
        0.0,
        0.0,
        0.0,
        0.0,
        0.0,
        1.0
      ],
      "name": "e0fe1d7eb1154231862b6b4c441e2bc8.fbx"
    },
    {
      "children": [
        3,
        5,
        7,
        9,
        11,
        13,
        15,
        17
      ],
      "name": "RootNode"
    },
    {
      "children": [
        4
      ],
      "matrix": [
        -99.9999999999996,
        -8.742277980456488e-06,
        0.0,
        0.0,
        -1.4242978711041864e-12,
        1.6292067994694293e-05,
        99.99999999999865,
        0.0,
        -8.74227798045637e-06,
        99.99999999999828,
        -1.6292067983592062e-05,
        0.0,
        0.0,
        0.0,
        -0.23305606842041016,
        1.0
      ],
      "name": "glasses_02_low"
    },
    {
      "mesh": 0,
      "name": "glasses_02_low_Gandi_0"
    },
    {
      "children": [
        6
      ],
      "matrix": [
        -99.9999999999996,
        -8.742277980456488e-06,
        0.0,
        0.0,
        -1.4242978711041864e-12,
        1.6292067994694293e-05,
        99.99999999999865,
        0.0,
        -8.74227798045637e-06,
        99.99999999999828,
        -1.6292067983592062e-05,
        0.0,
        0.0,
        0.0,
        -1.0554903745651245,
        1.0
      ],
      "name": "glasses_01_low_01"
    },
    {
      "mesh": 1,
      "name": "glasses_01_low_01_Gandi_0"
    },
    {
      "children": [
        8
      ],
      "matrix": [
        -99.9999999999996,
        -8.742277980456488e-06,
        0.0,
        0.0,
        -1.4242978711041864e-12,
        1.6292067994694293e-05,
        99.99999999999865,
        0.0,
        -8.74227798045637e-06,
        99.99999999999828,
        -1.6292067983592062e-05,
        0.0,
        0.0,
        0.0,
        0.0,
        1.0
      ],
      "name": "mustache_low"
    },
    {
      "mesh": 2,
      "name": "mustache_low_Gandi_0"
    },
    {
      "children": [
        10
      ],
      "matrix": [
        -99.9999999999996,
        -8.742277980456488e-06,
        0.0,
        0.0,
        -1.4242978711041864e-12,
        1.6292067994694293e-05,
        99.99999999999865,
        0.0,
        -8.74227798045637e-06,
        99.99999999999828,
        -1.6292067983592062e-05,
        0.0,
        0.0,
        0.0,
        0.0,
        1.0
      ],
      "name": "eyebrows_low"
    },
    {
      "mesh": 3,
      "name": "eyebrows_low_Gandi_0"
    },
    {
      "children": [
        12
      ],
      "matrix": [
        -99.9999999999996,
        -8.742277980456488e-06,
        0.0,
        0.0,
        -1.4242978711041864e-12,
        1.6292067994694293e-05,
        99.99999999999865,
        0.0,
        -8.74227798045637e-06,
        99.99999999999828,
        -1.6292067983592062e-05,
        0.0,
        0.0,
        0.0,
        0.0,
        1.0
      ],
      "name": "body_low"
    },
    {
      "mesh": 4,
      "name": "body_low_Gandi_0"
    },
    {
      "children": [
        14
      ],
      "matrix": [
        -99.9999999999996,
        -8.742277980456488e-06,
        0.0,
        0.0,
        -1.4242978711041864e-12,
        1.6292067994694293e-05,
        99.99999999999865,
        0.0,
        -8.74227798045637e-06,
        99.99999999999828,
        -1.6292067983592062e-05,
        0.0,
        0.0,
        0.0,
        -1.0554903745651245,
        1.0
      ],
      "name": "glasses_01_low_02"
    },
    {
      "mesh": 5,
      "name": "glasses_01_low_02_Gandi_0"
    },
    {
      "children": [
        16
      ],
      "matrix": [
        -16.873960494995057,
        2.0664641709134628e-15,
        1.4751685361455006e-06,
        0.0,
        -6.241520068157734e-14,
        16.8739604949951,
        -7.375842411982695e-07,
        0.0,
        -1.4751685361454994e-06,
        -7.375842411982721e-07,
        -16.873960494995043,
        0.0,
        -42.818111419677734,
        272.5627136230469,
        -82.59292602539063,
        1.0
      ],
      "name": "eyes"
    },
    {
      "mesh": 6,
      "name": "eyes_eye_0"
    },
    {
      "children": [
        18
      ],
      "matrix": [
        -99.9999999999996,
        -8.742277980456488e-06,
        0.0,
        0.0,
        -1.4242978711041864e-12,
        1.6292067994694293e-05,
        99.99999999999865,
        0.0,
        -8.74227798045637e-06,
        99.99999999999828,
        -1.6292067983592062e-05,
        0.0,
        0.0,
        0.0,
        -0.23305606842041016,
        1.0
      ],
      "name": "glasses_03_low"
    },
    {
      "mesh": 7,
      "name": "glasses_03_low_glass_0"
    }
  ],
  "samplers": [
    {
      "magFilter": 9729,
      "minFilter": 9987,
      "wrapS": 10497,
      "wrapT": 10497
    }
  ],
  "scene": 0,
  "scenes": [
    {
      "name": "Sketchfab_Scene",
      "nodes": [
        0
      ]
    }
  ],
  "textures": [
    {
      "sampler": 0,
      "source": 0
    },
    {
      "sampler": 0,
      "source": 1
    },
    {
      "sampler": 0,
      "source": 2
    },
    {
      "sampler": 0,
      "source": 3
    }
  ]
}
